<svg id="Layer_1" data-name="Layer 1" xmlns="http://www.w3.org/2000/svg" viewBox="0 0 434.53 23.02"><defs><style>.cls-1{fill:#231f20;}</style></defs><polygon class="cls-1" points="43 20.3 43 22.4 27.99 22.4 27.99 1.43 30.24 1.43 30.23 20.3 43 20.3"/><path class="cls-1" d="M55.21,1.06a10.86,10.86,0,1,0,0,21.72A10.93,10.93,0,0,0,66.43,11.93C66.43,5.73,61.6,1.06,55.21,1.06Zm0,19.57a8.72,8.72,0,1,1,9-8.7A8.72,8.72,0,0,1,55.21,20.63Z"/><path class="cls-1" d="M80.94,3.11H72.68v7.32H81.1c2.83,0,4.59-1.39,4.59-3.62C85.69,4.32,84.14,3.11,80.94,3.11Zm.16,7.12H72.88V3.31h8.06c3,0,4.55,1.12,4.55,3.5C85.49,8.93,83.8,10.23,81.1,10.23Z"/><path class="cls-1" d="M84.63,11a4.41,4.41,0,0,0,2.88-4.33c0-3.4-2.25-5.19-6.53-5.19H70.89v21h11c4.37,0,6.58-2,6.58-5.94A5.3,5.3,0,0,0,84.63,11ZM73.08,12.09h8.38a5.16,5.16,0,0,1,3.8,1.25,3.9,3.9,0,0,1,1,2.87c0,2.71-1.49,4.09-4.43,4.09H73.08Zm8-1.66H72.68V3.11h8.26c3.2,0,4.75,1.21,4.75,3.7C85.69,9,83.93,10.43,81.1,10.43Z"/><path class="cls-1" d="M80.94,3.11H72.68v7.32H81.1c2.83,0,4.59-1.39,4.59-3.62C85.69,4.32,84.14,3.11,80.94,3.11ZM81.1,10h-8V3.51h7.86c3,0,4.35,1,4.35,3.3C85.29,8.8,83.68,10,81.1,10Zm-.16-6.92H72.68v7.32H81.1c2.83,0,4.59-1.39,4.59-3.62C85.69,4.32,84.14,3.11,80.94,3.11ZM81.1,10h-8V3.51h7.86c3,0,4.35,1,4.35,3.3C85.29,8.8,83.68,10,81.1,10Zm-.16-6.92H72.68v7.32H81.1c2.83,0,4.59-1.39,4.59-3.62C85.69,4.32,84.14,3.11,80.94,3.11ZM81.1,10h-8V3.51h7.86c3,0,4.35,1,4.35,3.3C85.29,8.8,83.68,10,81.1,10Zm-.16-6.92H72.68v7.32H81.1c2.83,0,4.59-1.39,4.59-3.62C85.69,4.32,84.14,3.11,80.94,3.11ZM81.1,10h-8V3.51h7.86c3,0,4.35,1,4.35,3.3C85.29,8.8,83.68,10,81.1,10Zm-.16-6.92H72.68v7.32H81.1c2.83,0,4.59-1.39,4.59-3.62C85.69,4.32,84.14,3.11,80.94,3.11ZM81.1,10h-8V3.51h7.86c3,0,4.35,1,4.35,3.3C85.29,8.8,83.68,10,81.1,10Z"/><path class="cls-1" d="M101.52.45l-11.86,22h2.51l2.76-5.16H108l2.68,5.16h2.46ZM96,15.3,101.5,4.85,107,15.3Z"/><polygon class="cls-1" points="130.56 20.3 130.56 22.4 115.55 22.4 115.55 1.43 117.8 1.43 117.8 20.3 130.56 20.3"/><path class="cls-1" d="M210.76,16.8a4.83,4.83,0,0,1-1.43,3.5c-1.45,1.47-3.88,2.29-6.82,2.31h-.1a18,18,0,0,1-9.3-2.49l-.17-.11,1.23-1.78.16.1a16.07,16.07,0,0,0,8.25,2.19c3.62-.05,5.87-1.46,5.87-3.7,0-1.92-1.15-2.78-5-3.69l-2.88-.67c-4.55-1.07-6.59-2.82-6.62-5.7,0-3.26,3.17-5.49,8-5.54h.14A15,15,0,0,1,210,3.45l.18.11-1.19,1.78-.16-.1a12.27,12.27,0,0,0-6.68-1.93c-3.63.07-5.78,1.37-5.76,3.49,0,1.79,1.4,2.8,4.9,3.63l3,.69C208.84,12.19,210.73,13.83,210.76,16.8Z"/><path class="cls-1" d="M187.05,1.43h2.29V12.52c0,6.51-3.37,10.1-9.49,10.1s-9.47-3.59-9.47-10.11V1.43h2.27V12.51c0,5.29,2.43,8,7.2,8s7.2-2.68,7.2-8Z"/><rect class="cls-1" x="214.95" y="1.43" width="2.25" height="20.97"/><polygon class="cls-1" points="163 1.43 165.12 1.43 165.12 22.4 162.88 22.4 162.88 6.06 153.8 23.02 144.71 6.05 144.71 22.4 142.47 22.4 142.47 1.43 144.63 1.43 153.78 18.66 163 1.43"/><path class="cls-1" d="M241.44,19l-.16.16a11.73,11.73,0,0,1-8.54,3.5A10.69,10.69,0,0,1,221.67,11.9,10.8,10.8,0,0,1,232.74,1.14a11.76,11.76,0,0,1,8.44,3.45l.16.16-1.73,1.39L239.48,6a9.5,9.5,0,0,0-6.75-2.73,8.52,8.52,0,0,0-8.82,8.61,8.54,8.54,0,0,0,8.82,8.65,9.54,9.54,0,0,0,6.85-2.75l.12-.12Z"/><path class="cls-1" d="M269.73,16.8a4.81,4.81,0,0,1-1.43,3.5c-1.45,1.47-3.87,2.29-6.82,2.31h-.1a18,18,0,0,1-9.29-2.49l-.18-.11,1.23-1.78.16.1a16,16,0,0,0,8.25,2.19c3.62-.05,5.87-1.46,5.88-3.7,0-1.92-1.16-2.78-5-3.69l-2.88-.67C255,11.39,253,9.64,253,6.76c0-3.26,3.17-5.49,8-5.54h.14a15.11,15.11,0,0,1,7.88,2.23l.17.11-1.18,1.78-.17-.1a12.4,12.4,0,0,0-6.68-1.93c-3.63.07-5.78,1.37-5.75,3.49,0,1.79,1.39,2.8,4.9,3.63l3,.69C267.82,12.19,269.71,13.83,269.73,16.8Z"/><path class="cls-1" d="M283.91,1.06a10.87,10.87,0,1,0,11.21,10.87C295.12,5.73,290.3,1.06,283.91,1.06Zm0,2.14A8.72,8.72,0,1,1,275,11.93,8.66,8.66,0,0,1,283.9,3.2Z"/><polygon class="cls-1" points="314.59 20.3 314.59 22.4 299.58 22.4 299.58 1.43 301.83 1.43 301.82 20.3 314.59 20.3"/><path class="cls-1" d="M336,1.43V12.52c0,6.51-3.37,10.1-9.49,10.1S317,19,317,12.51V1.43h2.28V12.51c0,5.29,2.42,8,7.19,8s7.2-2.68,7.2-8V1.43Z"/><polygon class="cls-1" points="356.8 1.43 356.8 3.53 348.99 3.53 348.99 22.4 346.74 22.4 346.74 3.53 338.9 3.53 338.89 1.43 356.8 1.43"/><rect class="cls-1" x="360.1" y="1.43" width="2.25" height="20.97"/><path class="cls-1" d="M378,1.06a10.87,10.87,0,1,0,11.22,10.87C389.21,5.73,384.39,1.06,378,1.06Zm0,19.57a8.72,8.72,0,1,1,9-8.7A8.72,8.72,0,0,1,378,20.63Z"/><polygon class="cls-1" points="412.72 1.43 412.72 22.4 410.54 22.4 410.48 22.33 395.92 4.8 395.92 22.4 393.67 22.4 393.67 1.43 395.84 1.43 395.9 1.5 410.48 19.07 410.48 1.43 412.72 1.43"/><path class="cls-1" d="M434.53,16.8a4.82,4.82,0,0,1-1.42,3.5c-1.46,1.47-3.88,2.29-6.82,2.31h-.11a18,18,0,0,1-9.29-2.49l-.18-.11,1.23-1.78.17.1a16,16,0,0,0,8.24,2.19c3.62-.05,5.87-1.46,5.88-3.7,0-1.92-1.16-2.78-5-3.69l-2.88-.67c-4.55-1.07-6.59-2.82-6.61-5.7,0-3.26,3.17-5.49,7.95-5.54h.14a15.11,15.11,0,0,1,7.88,2.23l.17.11-1.18,1.78-.17-.1a12.4,12.4,0,0,0-6.68-1.93c-3.63.07-5.78,1.37-5.75,3.49,0,1.79,1.39,2.8,4.9,3.63l3,.69C432.62,12.19,434.51,13.83,434.53,16.8Z"/><path class="cls-1" d="M10.78,1h0Z"/><path class="cls-1" d="M8.69,11.3a3.06,3.06,0,0,0,3.14,3v-6A3.06,3.06,0,0,0,8.69,11.3Zm3.13,1a1,1,0,1,1,0-2Z"/><path class="cls-1" d="M7.91,11.3a3.84,3.84,0,0,0,3.92,3.75v5A9,9,0,0,1,2.77,11.3a8.94,8.94,0,0,1,9.06-8.74v5A3.83,3.83,0,0,0,7.91,11.3Z"/><rect class="cls-1" x="11.83" y="1.97" width="0.09" height="0.01"/><path class="cls-1" d="M10.78,11.3a1,1,0,0,0,1,1h0v2a3.06,3.06,0,0,1-3.14-3,3.06,3.06,0,0,1,3.14-3v2h0A1,1,0,0,0,10.78,11.3Z"/><path class="cls-1" d="M23.64,11.29c0,.21,0,.4,0,.59a10.06,10.06,0,0,1-.21,1.65c0,.16-.07.32-.11.48l0,.07a3.25,3.25,0,0,1-.11.37c0,.12-.08.26-.12.39l-.12.33c-.06.15-.12.29-.17.44s-.15.32-.24.47-.12.24-.18.36l-.13.25a1.64,1.64,0,0,1-.14.22.68.68,0,0,1-.09.16c-.08.14-.17.27-.26.4s-.15.22-.24.34l-.12.16-.19.23a2.22,2.22,0,0,1-.17.22l-.12.14a4,4,0,0,1-.29.31l-.09.09a3,3,0,0,1-.25.26l-.16.15a3.09,3.09,0,0,1-.32.29l-.39.33-.13.1-.23.17-.22.16-.23.16-.24.15-.31.19L17.9,21l-.28.15-.26.14-.08.08H17.2l-.32.15-.36.15-.15.07-.34.12a1,1,0,0,1-.21.08l-.31.09a4.15,4.15,0,0,1-.46.15l-.37.09-.48.1-.39.08c-.51.07-1,.13-1.55.15h-.88a12.39,12.39,0,0,1-3.58-.67A12.1,12.1,0,0,1,4.33,20a11.23,11.23,0,0,1-2.6-2.86A10.8,10.8,0,0,1,.24,13.59,11,11,0,0,1,0,11.29,11.54,11.54,0,0,1,11.38,0h.92a12,12,0,0,1,7.59,3l.3.27.31.3L19,5h0l-.6-.56A9.92,9.92,0,0,0,12.26,2h-.43a8.26,8.26,0,0,0-1.13.07l-.5.05a9.46,9.46,0,0,0-8.14,9.19,9.47,9.47,0,0,0,8.27,9.23l.37,0a8.26,8.26,0,0,0,1.13.07h.43a9.58,9.58,0,0,0,9.27-8.33h-9.7v-2h11.8v.42C23.64,10.91,23.64,11.1,23.64,11.29Z"/><path class="cls-1" d="M12.26,0h0Z"/><path class="cls-1" d="M11.83,22.6h0Z"/><path class="cls-1" d="M12.25,2h0Z"/><path class="cls-1" d="M11.83,22.6h0Z"/></svg>